<svg width="45" height="45" viewBox="0 0 45 45" fill="none" xmlns="http://www.w3.org/2000/svg">
<rect x="0.498779" y="0.47168" width="44.1652" height="44.1566" rx="10.4799" fill="#3B5998"/>
<path d="M27.9025 10.9544L24.9904 10.9497C21.7187 10.9497 19.6044 13.1185 19.6044 16.4753V19.023H16.6764C16.4234 19.023 16.2185 19.228 16.2185 19.481V23.1723C16.2185 23.4253 16.4236 23.6302 16.6764 23.6302H19.6044V32.9444C19.6044 33.1974 19.8093 33.4022 20.0623 33.4022H23.8825C24.1355 33.4022 24.3404 33.1972 24.3404 32.9444V23.6302H27.764C28.017 23.6302 28.2219 23.4253 28.2219 23.1723L28.2233 19.481C28.2233 19.3595 28.1749 19.2432 28.0892 19.1573C28.0034 19.0713 27.8866 19.023 27.7651 19.023H24.3404V16.8633C24.3404 15.8252 24.5878 15.2983 25.9403 15.2983L27.902 15.2976C28.1548 15.2976 28.3597 15.0925 28.3597 14.8398V11.4122C28.3597 11.1597 28.155 10.9548 27.9025 10.9544Z" fill="white"/>
</svg>
