<svg width="44" height="44" viewBox="0 0 44 44" fill="none" xmlns="http://www.w3.org/2000/svg">
<rect width="44" height="44" rx="10.4799" fill="url(#paint0_linear_0:627)"/>
            <path fill-rule="evenodd" clip-rule="evenodd" d="M17.1057 10.4409H26.1485C29.8236 10.4409 32.8135 13.4308 32.8136 17.1059V26.1488C32.8136 29.8239 29.8236 32.8138 26.1485 32.8138H17.1057C13.4306 32.8138 10.4407 29.8239 10.4407 26.1488V17.1059C10.4407 13.4308 13.4306 10.4409 17.1057 10.4409ZM26.1485 30.5631C28.5865 30.5631 30.5628 28.5867 30.5628 26.1488V17.1059C30.5628 14.668 28.5865 12.6916 26.1485 12.6916H17.1057C14.6678 12.6916 12.6914 14.668 12.6914 17.1059V26.1488C12.6914 28.5867 14.6678 30.5631 17.1057 30.5631H26.1485Z" fill="white"/>
            <path fill-rule="evenodd" clip-rule="evenodd" d="M15.8407 21.6272C15.8407 18.4366 18.4365 15.8408 21.6271 15.8408C24.8178 15.8408 27.4136 18.4366 27.4136 21.6272C27.4136 24.8178 24.8178 27.4136 21.6271 27.4136C18.4365 27.4136 15.8407 24.8178 15.8407 21.6272ZM18.0914 21.6272C18.0914 23.58 19.6744 25.163 21.6271 25.163C23.5798 25.163 25.1629 23.58 25.1629 21.6272C25.1629 19.6745 23.5798 18.0915 21.6271 18.0915C19.6744 18.0915 18.0914 19.6745 18.0914 21.6272Z" fill="white"/>
            <path d="M27.4247 17.2712C28.1905 17.2712 28.8113 16.6504 28.8113 15.8846C28.8113 15.1188 28.1905 14.498 27.4247 14.498C26.6589 14.498 26.0381 15.1188 26.0381 15.8846C26.0381 16.6504 26.6589 17.2712 27.4247 17.2712Z" fill="white"/>
            <defs>
               <linearGradient id="paint0_linear_0:627" x1="43%" y1="43%" x2="43%" y2="0%">
                    <stop stop-color="#E09B3D"/>
                    <stop offset="0.3" stop-color="#C74C4D"/>
                    <stop offset="0.6" stop-color="#C21975"/>
                    <stop offset="1" stop-color="#7024C4"/>
                </linearGradient>
            </defs>
</svg>
