<svg width="30" height="32" viewBox="0 0 30 32" fill="none" xmlns="http://www.w3.org/2000/svg">
<path fill-rule="evenodd" clip-rule="evenodd" d="M14.0628 0C6.30827 0 0 6.45977 0 14.4006C0 22.3414 6.30827 28.8011 14.0628 28.8011C15.6847 28.8011 16.8351 28.6119 17.8495 28.4449L17.8511 28.4446C18.7368 28.2988 19.5729 28.1611 20.6255 28.1611C25.7287 28.1611 28.8751 31.7473 28.9057 31.7837C29.0282 31.9258 29.2013 32 29.3757 32C29.492 32 29.6095 31.9679 29.7126 31.8987C29.9726 31.7279 30.0714 31.3886 29.9458 31.1C29.877 30.9412 28.179 27.1908 21.3714 25.5772L21.1858 25.5247C19.5033 25.0985 18.1445 24.4043 17.1488 23.4609C15.8626 22.2436 15.6169 21.0148 15.6156 21.0071C15.5581 20.6813 15.2605 20.4558 14.9442 20.4833C14.6217 20.5134 14.3753 20.7893 14.3753 21.1208C14.3753 21.1861 14.3794 22.459 14.5963 23.6609C14.41 23.6744 14.2335 23.6809 14.0628 23.6809C9.06584 23.6809 5.00012 19.5176 5.00012 14.4006C5.00012 9.28356 9.06584 5.1202 14.0628 5.1202C19.0598 5.1202 23.1255 9.28356 23.1255 14.4006C23.1255 14.782 23.1022 15.1678 23.0547 15.5519C21.876 15.3611 20.7036 15.3606 20.6255 15.3606C20.2617 15.3606 20.0005 15.6803 20.0005 16.0131C20.008 16.3607 20.2849 16.64 20.6243 16.6406C20.6368 16.6406 21.9374 16.6533 23.1011 17.4194C25.0306 18.6892 25.4925 20.6067 25.4962 20.6233C25.5543 20.887 25.7684 21.0838 26.0309 21.1158C26.2915 21.1433 26.5469 21.0071 26.6645 20.7646C27.6339 18.7581 28.1257 16.6163 28.1257 14.4006C28.1257 6.45977 21.8174 0 14.0628 0ZM23.6344 20.0009C23.3894 19.991 23.1986 20.062 23.0936 20.1846C22.8817 20.4319 23.0397 20.9221 23.4665 21.3488C23.8994 21.7809 24.266 22 24.5579 22C24.8259 22 25.0939 21.7763 24.968 21.2355C24.893 20.9128 24.6108 20.2114 23.8961 20.0387C23.8036 20.0164 23.7161 20.0042 23.6344 20.0009ZM21.2361 23.2279C21.4085 23.0779 21.6888 23 22.0254 23C22.4341 23 22.8632 23.1159 23.2321 23.3359C23.9767 23.7806 24.2027 24.309 23.8091 24.6823C23.5894 24.887 23.234 25 22.8089 25C22.3913 25 21.9657 24.8903 21.6696 24.7083C20.9925 24.2903 20.7937 23.6132 21.2361 23.2279Z" fill="#FF9109"/>
</svg>
