<svg width="45" height="45" viewBox="0 0 45 45" fill="none" xmlns="http://www.w3.org/2000/svg">
<rect x="0.766602" y="0.47168" width="44.1652" height="44.1566" rx="10.4799" fill="#436EAB"/>
<path d="M30.5739 24.2676C31.3188 24.9948 32.105 25.6789 32.7732 26.4794C33.0684 26.8351 33.3477 27.2022 33.5615 27.615C33.8644 28.2018 33.59 28.8476 33.0638 28.8826L29.7922 28.8811C28.9483 28.9511 28.2752 28.6115 27.7093 28.0347C27.2563 27.5734 26.8368 27.0824 26.4013 26.6056C26.2227 26.4107 26.0358 26.2274 25.8125 26.0824C25.366 25.7925 24.9783 25.8813 24.7231 26.347C24.4631 26.8206 24.4041 27.3451 24.3786 27.8731C24.3436 28.6433 24.1107 28.8458 23.3369 28.881C21.6831 28.959 20.1136 28.7089 18.6555 27.8748C17.37 27.1395 16.3732 26.1013 15.5056 24.9261C13.8163 22.6377 12.5227 20.1231 11.36 17.5381C11.0983 16.9557 11.2897 16.6431 11.9324 16.632C12.9997 16.6113 14.0668 16.6128 15.1354 16.6305C15.5692 16.6369 15.8563 16.8856 16.0238 17.2953C16.6013 18.7149 17.3078 20.0654 18.1947 21.3173C18.4309 21.6506 18.6717 21.9839 19.0146 22.2185C19.394 22.4782 19.6829 22.3921 19.8614 21.9695C19.9746 21.7016 20.0242 21.413 20.0497 21.1261C20.1343 20.1388 20.1455 19.1533 19.9972 18.1695C19.9061 17.5555 19.5602 17.158 18.9474 17.0419C18.6347 16.9826 18.6813 16.8663 18.8327 16.6878C19.0956 16.3801 19.3429 16.1885 19.836 16.1885H23.5334C24.1155 16.3033 24.2448 16.5648 24.3245 17.1503L24.3276 21.2566C24.3213 21.4832 24.4409 22.156 24.8492 22.306C25.1761 22.4128 25.3916 22.1514 25.5877 21.9442C26.4729 21.0048 27.1048 19.8946 27.6692 18.7451C27.9197 18.2396 28.1351 17.7147 28.3438 17.1902C28.4985 16.801 28.7411 16.6095 29.1797 16.6179L32.7382 16.6211C32.8437 16.6211 32.9505 16.6226 33.0526 16.6401C33.6523 16.7423 33.8166 17.0002 33.6314 17.5856C33.3396 18.5041 32.7719 19.2696 32.2166 20.0386C31.6233 20.8595 30.9886 21.6524 30.4 22.4782C29.8593 23.2325 29.9022 23.6126 30.5739 24.2676Z" fill="white"/>
</svg>
