<svg width="45" height="45" viewBox="0 0 45 45" fill="none" xmlns="http://www.w3.org/2000/svg">
<rect x="0.388672" y="0.47168" width="44.1652" height="44.1566" rx="10.4799" fill="#D8362A"/>
<path d="M33.8417 17.6209C33.8417 17.6209 33.6094 15.9563 32.9512 15.2208C32.0994 14.253 31.1314 14.253 30.7055 14.2143C27.5693 13.9821 22.8456 13.9434 22.8456 13.9434C22.8456 13.9434 18.1219 13.9821 14.9857 14.2143C14.5598 14.253 13.5919 14.2918 12.74 15.2208C12.0431 15.9564 11.8495 17.6209 11.8495 17.6209C11.8495 17.6209 11.6172 19.5952 11.6172 21.5695V23.3889C11.6172 25.3632 11.8495 27.2988 11.8495 27.2988C11.8495 27.2988 12.0819 28.9634 12.74 29.6989C13.5919 30.6667 14.7147 30.628 15.218 30.7441C16.9991 30.9376 22.8456 30.9763 22.8456 30.9763C22.8456 30.9763 27.5693 30.9763 30.7055 30.7054C31.1314 30.6666 32.0994 30.6279 32.9512 29.6988C33.6094 28.9634 33.8417 27.2987 33.8417 27.2987C33.8417 27.2987 34.074 25.3245 34.074 23.3889V21.5694C34.074 19.5952 33.8417 17.6209 33.8417 17.6209Z" fill="white"/>
<path d="M20.1353 18.5498V26.9502L27.4918 22.8468L20.1353 18.5498Z" fill="#D8362A"/>
</svg>
