<svg width="21" height="23" viewBox="0 0 21 23" fill="none" xmlns="http://www.w3.org/2000/svg">
<path fill-rule="evenodd" clip-rule="evenodd" d="M15.4707 15.7205V7.68338C17.0815 8.83616 19.016 9.45521 21 9.45282V6.37917C19.8302 6.1281 18.7737 5.50627 17.9892 4.60701C17.3608 4.2003 16.822 3.67092 16.4053 3.05092C15.9885 2.43092 15.7025 1.73319 15.5647 1H12.655L12.649 16.8494C12.5821 18.6243 11.1141 20.0489 9.31444 20.0489C8.78492 20.0484 8.26324 19.9225 7.79232 19.6815C7.32149 19.4406 6.91499 19.0915 6.60647 18.6633C6.06682 18.3818 5.61475 17.9589 5.29913 17.4402C4.98352 16.9215 4.81635 16.3269 4.81571 15.7205C4.81673 14.8392 5.16902 13.9942 5.79529 13.371C6.42155 12.7478 7.27064 12.3972 8.15634 12.3962C8.49997 12.3962 8.82988 12.4523 9.14204 12.5501V9.44896C5.18811 9.54138 2 12.7678 2 16.7246C2 18.638 2.74702 20.3799 3.96426 21.6809C5.19135 22.5406 6.6557 23.0013 8.15634 23C12.1898 23 15.4707 19.7344 15.4707 15.7205Z" fill="white"/>
<path fill-rule="evenodd" clip-rule="evenodd" d="M14.1798 14.0514V6.37963C15.8753 7.47999 17.9116 8.07091 20 8.0686V5.13466C18.7686 4.89501 17.6566 4.30145 16.8308 3.44306C16.1694 3.05484 15.6022 2.54952 15.1635 1.9577C14.7248 1.36588 14.4237 0.699867 14.2786 0H11.2159L11.2095 15.129C11.1391 16.8232 9.59373 18.1831 7.69941 18.1831C7.1421 18.1826 6.59288 18.0624 6.09721 17.8324C5.60155 17.6024 5.17366 17.2692 4.84893 16.8605C4.28087 16.5918 3.80501 16.188 3.47278 15.6929C3.14055 15.1978 2.96459 14.6302 2.96391 14.0514C2.96499 13.2101 3.33582 12.4035 3.99505 11.8087C4.65428 11.2137 5.54807 10.8792 6.48036 10.8781C6.84212 10.8781 7.18935 10.9317 7.51796 11.0251V8.06496C3.35592 8.15314 0 11.233 0 15.0098C0 16.8363 0.786343 18.4991 2.06764 19.7409C3.35933 20.5614 4.90071 21.0013 6.48036 21C10.7262 21 14.1798 17.8829 14.1798 14.0514Z" fill="white"/>
<path fill-rule="evenodd" clip-rule="evenodd" d="M14.4708 14.7205V6.6834C16.0815 7.83618 18.016 8.45522 20 8.45283V5.37916C18.8302 5.12809 17.7738 4.50627 16.9892 3.607C16.3609 3.2003 15.822 2.67092 15.4053 2.05092C14.9885 1.43092 14.7026 0.733192 14.5648 0H11.6551L11.649 15.8494C11.5821 17.6243 10.114 19.0489 8.31442 19.0489C7.78498 19.0484 7.26321 18.9224 6.79237 18.6815C6.32147 18.4405 5.91498 18.0915 5.60648 17.6633C5.06683 17.3818 4.61476 16.9588 4.29914 16.4402C3.98352 15.9215 3.81636 15.3269 3.81571 14.7205C3.81674 13.8391 4.16903 12.9942 4.79529 12.3709C5.42156 11.7477 6.27066 11.3972 7.15632 11.3962C7.50003 11.3962 7.82986 11.4523 8.1421 11.5501V8.44898C4.18813 8.54131 1 11.7678 1 15.7246C1 17.638 1.74703 19.3799 2.96426 20.6809C4.19136 21.5406 5.65568 22.0013 7.15632 22C11.1898 22 14.4708 18.7344 14.4708 14.7205Z" fill="white"/>
</svg>
