<svg width="30" height="17" viewBox="0 0 30 17" fill="none" xmlns="http://www.w3.org/2000/svg">
<path d="M25.8193 10.795C26.8144 11.7666 27.8647 12.6806 28.7573 13.7502C29.1516 14.2255 29.5248 14.716 29.8104 15.2676C30.215 16.0517 29.8485 16.9145 29.1455 16.9613L24.775 16.9593C23.6477 17.0528 22.7485 16.5991 21.9924 15.8284C21.3873 15.212 20.8269 14.556 20.2451 13.9189C20.0065 13.6585 19.7569 13.4135 19.4586 13.2198C18.862 12.8325 18.3441 12.9511 18.0032 13.5733C17.6559 14.2062 17.5771 14.907 17.543 15.6124C17.4962 16.6415 17.1851 16.9121 16.1514 16.9592C13.9421 17.0634 11.8454 16.7292 9.89749 15.6147C8.18026 14.6322 6.84866 13.2451 5.68956 11.6748C3.43293 8.61719 1.70471 5.25729 0.151514 1.80334C-0.198117 1.02516 0.057586 0.60745 0.916214 0.59262C2.34198 0.56491 3.76756 0.5669 5.19502 0.59063C5.77452 0.59913 6.15813 0.93147 6.3819 1.47891C7.15329 3.37569 8.09717 5.18019 9.28189 6.85289C9.59749 7.29819 9.91919 7.74359 10.3773 8.05699C10.8841 8.40409 11.27 8.28899 11.5085 7.72439C11.6597 7.36639 11.726 6.98079 11.7601 6.59739C11.8731 5.27829 11.888 3.96139 11.6899 2.64692C11.5682 1.82655 11.1061 1.29545 10.2875 1.14024C9.86979 1.06108 9.93199 0.90563 10.1343 0.66721C10.4855 0.256 10.8159 0 11.4746 0H16.4139C17.1915 0.15346 17.3642 0.5028 17.4707 1.2852L17.4749 6.77179C17.4664 7.07459 17.6262 7.97349 18.1717 8.17399C18.6084 8.31669 18.8962 7.96739 19.1582 7.69049C20.3408 6.43539 21.1849 4.95199 21.9389 3.41599C22.2735 2.74061 22.5613 2.03924 22.8401 1.3384C23.0467 0.81838 23.3709 0.5625 23.9567 0.57381L28.7105 0.57803C28.8515 0.57803 28.9941 0.58008 29.1306 0.60346C29.9317 0.73999 30.1512 1.08457 29.9038 1.8668C29.514 3.09405 28.7555 4.11679 28.0138 5.14429C27.2211 6.24119 26.3732 7.30059 25.587 8.40409C24.8647 9.41189 24.922 9.91979 25.8193 10.795Z" fill="white"/>
</svg>
