<svg width="18" height="13" viewBox="0 0 18 13" fill="none" xmlns="http://www.w3.org/2000/svg">
<path fill-rule="evenodd" clip-rule="evenodd" d="M8.91609 0.657227C3.78246 0.657227 1.34492 5.05691 0.753551 6.31275C0.654741 6.52231 0.654741 6.76537 0.753551 6.97492C1.34492 8.23152 3.78246 12.6319 8.91609 12.6319C14.0318 12.6319 16.4709 8.26335 17.0728 6.98954C17.1761 6.77026 17.1761 6.51888 17.0728 6.29959C16.4709 5.02579 14.0318 0.657227 8.91609 0.657227ZM8.91609 2.90248C10.9829 2.90248 12.6589 4.57819 12.6589 6.64457C12.6589 8.71095 10.9829 10.3867 8.91609 10.3867C6.84931 10.3867 5.17328 8.71095 5.17328 6.64457C5.17328 4.57819 6.84931 2.90248 8.91609 2.90248ZM8.91609 4.39932C7.67584 4.39932 6.67041 5.40455 6.67041 6.64457C6.67041 7.88459 7.67584 8.88982 8.91609 8.88982C10.1564 8.88982 11.1618 7.88459 11.1618 6.64457C11.1618 5.40455 10.1564 4.39932 8.91609 4.39932Z" fill="url(#paint0_linear_0:57)"/>
<defs>
<linearGradient id="paint0_linear_0:57" x1="-7.55597" y1="6.64457" x2="3.83496" y2="22.3125" gradientUnits="userSpaceOnUse">
<stop stop-color="#3087FB"/>
<stop offset="1" stop-color="#333DBD"/>
</linearGradient>
</defs>
</svg>
