<svg width="23" height="22" viewBox="0 0 23 22" fill="none" xmlns="http://www.w3.org/2000/svg">
<path fill-rule="evenodd" clip-rule="evenodd" d="M19.6636 0.00217355C19.4293 -0.00919087 19.1888 0.023753 18.9515 0.107034L8.06153 3.92189L2.88387 4.33107C1.26428 4.45885 0 5.86152 0 7.53045V11.9619C0 13.6308 1.26428 15.0335 2.88387 15.1613C2.90565 15.1629 2.92748 15.1637 2.94932 15.1636H2.18953L2.69642 19.8526C2.82804 21.0684 3.84202 22 5.03236 22C6.3205 22 7.38383 20.9085 7.38383 19.5848V15.5169L8.06264 15.5705L18.9515 19.3853C18.9519 19.3853 18.9522 19.3853 18.9526 19.3853C20.2177 19.8284 21.5814 18.825 21.5814 17.4511V12.199C22.4126 11.8521 23 11.0166 23 10.038C23 9.05935 22.4126 8.22386 21.5814 7.87694V2.04011C21.5814 2.03973 21.5814 2.03935 21.5814 2.03897C21.5806 1.0088 20.8128 0.187496 19.8954 0.0283885C19.819 0.0151296 19.7417 0.00596168 19.6636 0.00217355ZM19.6481 1.7449C19.783 1.75944 19.8775 1.8713 19.8777 2.04125V17.4511C19.8777 17.6774 19.7097 17.8009 19.5016 17.7281L8.50965 13.8779C8.44186 13.8541 8.37143 13.8392 8.30001 13.8334L6.59631 13.6978C6.35985 13.6794 6.12664 13.7632 5.95276 13.9289C5.77889 14.0946 5.68009 14.3272 5.68012 14.5709V19.5848C5.68012 19.9616 5.39908 20.2493 5.03236 20.2493C4.69541 20.2493 4.42712 20.0019 4.39014 19.6589L3.79895 14.1925C3.75354 13.7735 3.42394 13.4472 3.01476 13.4163C2.26734 13.3573 1.7037 12.7323 1.7037 11.9619V7.53045C1.7037 6.76005 2.26734 6.13505 3.01476 6.07608L7.38272 5.73187V11.2051C7.37837 11.5208 7.53978 11.8144 7.80513 11.9736C8.07048 12.1327 8.39866 12.1327 8.66401 11.9736C8.92936 11.8144 9.09076 11.5208 9.08642 11.2051V5.41273L19.5016 1.76428C19.5535 1.74606 19.6031 1.74006 19.6481 1.7449Z" fill="url(#paint0_linear_0:1410)"/>
<defs>
<linearGradient id="paint0_linear_0:1410" x1="-11.5" y1="11" x2="10.4783" y2="33.9773" gradientUnits="userSpaceOnUse">
<stop stop-color="#3087FB"/>
<stop offset="1" stop-color="#333DBD"/>
</linearGradient>
</defs>
</svg>
