<svg width="22" height="22" viewBox="0 0 22 22" fill="none" xmlns="http://www.w3.org/2000/svg">
<path fill-rule="evenodd" clip-rule="evenodd" d="M11.0001 0C7.40539 0 4.20826 1.73204 2.20015 4.40645V2.475C2.20335 2.25191 2.11606 2.03703 1.9582 1.87937C1.80033 1.72171 1.58535 1.6347 1.36226 1.63818C0.907052 1.6453 0.543628 2.01978 0.550159 2.475V6.325C0.550204 6.78062 0.91954 7.14995 1.37515 7.15H5.22512C5.52265 7.15421 5.79939 6.99789 5.94938 6.7409C6.09937 6.48392 6.09937 6.16608 5.94938 5.9091C5.79939 5.65211 5.52265 5.49579 5.22512 5.5H3.43764C5.13662 3.16701 7.88665 1.65 11.0001 1.65C16.1735 1.65 20.35 5.82654 20.35 11C20.35 16.1735 16.1735 20.35 11.0001 20.35C5.82666 20.35 1.65015 16.1735 1.65015 11C1.65436 10.7025 1.49804 10.4257 1.24106 10.2757C0.984075 10.1258 0.666238 10.1258 0.409255 10.2757C0.152271 10.4257 -0.00404519 10.7025 0.000162519 11C0.000162519 17.0652 4.93489 22 11.0001 22C17.0653 22 22 17.0652 22 11C22 4.93476 17.0653 0 11.0001 0ZM10.7122 4.93818C10.257 4.9453 9.89356 5.31978 9.90009 5.775V12.375C9.90014 12.8306 10.2695 13.2 10.7251 13.2H15.1251C15.4226 13.2042 15.6993 13.0479 15.8493 12.7909C15.9993 12.5339 15.9993 12.2161 15.8493 11.9591C15.6993 11.7021 15.4226 11.5458 15.1251 11.55H11.5501V5.775C11.5533 5.55191 11.466 5.33703 11.3081 5.17937C11.1503 5.02171 10.9353 4.9347 10.7122 4.93818Z" fill="url(#paint0_linear_0:1371)"/>
<defs>
<linearGradient id="paint0_linear_0:1371" x1="-11" y1="11" x2="11" y2="33" gradientUnits="userSpaceOnUse">
<stop stop-color="#3087FB"/>
<stop offset="1" stop-color="#333DBD"/>
</linearGradient>
</defs>
</svg>
