<svg width="22" height="22" viewBox="0 0 22 22" fill="none" xmlns="http://www.w3.org/2000/svg">
<path fill-rule="evenodd" clip-rule="evenodd" d="M10.9864 8.0438e-05C10.7187 0.00447607 10.4679 0.132077 10.3068 0.345895L8.07021 2.58126C7.84335 2.79895 7.75197 3.12221 7.83131 3.42636C7.91064 3.73051 8.1483 3.96804 8.45263 4.04733C8.75696 4.12662 9.0804 4.03529 9.29821 3.80856L10.1316 2.97567V6.088C10.1271 6.40101 10.2917 6.69215 10.5622 6.84994C10.8327 7.00774 11.1673 7.00774 11.4378 6.84994C11.7083 6.69215 11.8729 6.40101 11.8684 6.088V2.97567L12.7018 3.80856C12.9196 4.03529 13.243 4.12662 13.5474 4.04733C13.8517 3.96804 14.0894 3.73051 14.1687 3.42636C14.248 3.12221 14.1566 2.79895 13.9298 2.58126L11.6886 0.341375C11.5218 0.122936 11.2614 -0.0036556 10.9864 8.0438e-05ZM2.02632 8.11316C0.917658 8.11316 0 9.0303 0 10.1383V19.9748C0 21.0829 0.917658 22 2.02632 22H19.9737C21.0823 22 22 21.0829 22 19.9748V10.1383C22 9.0303 21.0823 8.11316 19.9737 8.11316H2.02632ZM3.47368 9.84902H18.5263C18.5263 10.8095 19.3021 11.5849 20.2632 11.5849V18.5283C19.3021 18.5283 18.5263 19.3036 18.5263 20.2641H3.47368C3.47368 19.3036 2.69789 18.5283 1.73684 18.5283V11.5849C2.69789 11.5849 3.47368 10.8095 3.47368 9.84902ZM11 11.0063C9.86623 11.0063 8.91304 11.5757 8.34385 12.3579C7.77466 13.1401 7.52632 14.1032 7.52632 15.0566C7.52632 16.01 7.77466 16.9731 8.34385 17.7553C8.91304 18.5375 9.86623 19.1069 11 19.1069C12.1338 19.1069 13.087 18.5375 13.6561 17.7553C14.2253 16.9731 14.4737 16.01 14.4737 15.0566C14.4737 14.1032 14.2253 13.1401 13.6561 12.3579C13.087 11.5757 12.1338 11.0063 11 11.0063ZM11 12.7421C11.6031 12.7421 11.9525 12.9683 12.2517 13.3795C12.551 13.7907 12.7368 14.4188 12.7368 15.0566C12.7368 15.6944 12.551 16.3225 12.2517 16.7337C11.9525 17.1449 11.6031 17.3711 11 17.3711C10.3969 17.3711 10.0475 17.1449 9.74825 16.7337C9.44902 16.3225 9.26316 15.6944 9.26316 15.0566C9.26316 14.4188 9.44902 13.7907 9.74825 13.3795C10.0475 12.9683 10.3969 12.7421 11 12.7421ZM4.05263 13.8993C3.41314 13.8993 2.89474 14.4175 2.89474 15.0566C2.89474 15.6957 3.41314 16.2138 4.05263 16.2138C4.69212 16.2138 5.21053 15.6957 5.21053 15.0566C5.21053 14.4175 4.69212 13.8993 4.05263 13.8993ZM17.9474 13.8993C17.3079 13.8993 16.7895 14.4175 16.7895 15.0566C16.7895 15.6957 17.3079 16.2138 17.9474 16.2138C18.5869 16.2138 19.1053 15.6957 19.1053 15.0566C19.1053 14.4175 18.5869 13.8993 17.9474 13.8993Z" fill="url(#paint0_linear_0:1360)"/>
<defs>
<linearGradient id="paint0_linear_0:1360" x1="-11" y1="11" x2="11" y2="33" gradientUnits="userSpaceOnUse">
<stop stop-color="#3087FB"/>
<stop offset="1" stop-color="#333DBD"/>
</linearGradient>
</defs>
</svg>
