<svg width="24" height="16" viewBox="0 0 24 16" fill="none" xmlns="http://www.w3.org/2000/svg">
<path fill-rule="evenodd" clip-rule="evenodd" d="M2 0C0.90574 0 0 0.90574 0 2V4.87388C6.04091e-05 5.11966 0.10561 5.35359 0.289846 5.51626C0.474082 5.67893 0.719279 5.7547 0.96317 5.72433C1.01534 5.71781 1.07933 5.71429 1.14286 5.71429C2.41759 5.71429 3.42857 6.72526 3.42857 8C3.42857 9.27474 2.41759 10.2857 1.14286 10.2857C1.07933 10.2857 1.01534 10.2822 0.96317 10.2757C0.719279 10.2453 0.474082 10.3211 0.289846 10.4837C0.10561 10.6464 6.04091e-05 10.8803 0 11.1261V14C0 15.0943 0.90574 16 2 16H22C23.0943 16 24 15.0943 24 14V11.1261C23.9999 10.8803 23.8944 10.6464 23.7102 10.4837C23.5259 10.3211 23.2807 10.2453 23.0368 10.2757C22.9847 10.2822 22.9207 10.2857 22.8571 10.2857C21.5824 10.2857 20.5714 9.27474 20.5714 8C20.5714 6.72526 21.5824 5.71429 22.8571 5.71429C22.9207 5.71429 22.9847 5.71783 23.0368 5.72433C23.2807 5.7547 23.5259 5.67893 23.7102 5.51626C23.8944 5.35359 23.9999 5.11966 24 4.87388V2C24 0.90574 23.0943 0 22 0H2ZM2 1.71429H22C22.1686 1.71429 22.2857 1.8314 22.2857 2V4.11607C20.366 4.40615 18.8571 6.00284 18.8571 8C18.8571 9.99716 20.366 11.5939 22.2857 11.8839V14C22.2857 14.1686 22.1686 14.2857 22 14.2857H2C1.8314 14.2857 1.71429 14.1686 1.71429 14V11.8839C3.63398 11.5939 5.14286 9.99716 5.14286 8C5.14286 6.00284 3.63398 4.40615 1.71429 4.11607V2C1.71429 1.8314 1.8314 1.71429 2 1.71429ZM12.2846 3.59263C12.0167 3.57242 11.7393 3.70266 11.5993 3.98438L11.5513 4.10491L10.8683 6.29353H8.66183C8.00983 6.29353 7.71636 7.1111 8.15179 7.56138L8.24219 7.64174L10.0279 8.99442L9.34487 11.1819C9.14258 11.8305 9.80473 12.3759 10.3504 12.077L10.4453 12.0156L12.231 10.6629L14.0167 12.0156C14.5459 12.4168 15.248 11.9295 15.144 11.2958L15.1172 11.1819L14.4353 8.99442L16.221 7.64174C16.7484 7.24231 16.5242 6.40017 15.9185 6.30246L15.8002 6.29353H13.5926L12.9107 4.10603C12.8104 3.78403 12.5525 3.61285 12.2846 3.59263Z" fill="url(#paint0_linear_0:1377)"/>
<defs>
<linearGradient id="paint0_linear_0:1377" x1="-12" y1="8" x2="2.76923" y2="30.1538" gradientUnits="userSpaceOnUse">
<stop stop-color="#3087FB"/>
<stop offset="1" stop-color="#333DBD"/>
</linearGradient>
</defs>
</svg>
