<svg width="23" height="22" viewBox="0 0 23 22" fill="none" xmlns="http://www.w3.org/2000/svg">
<path fill-rule="evenodd" clip-rule="evenodd" d="M14.6796 0.000337907C14.4901 0.00591857 14.3101 0.0857995 14.1778 0.223069L12.4444 1.9742C12.2908 2.12935 12.111 2.25299 11.9132 2.33806C11.9126 2.33838 11.9119 2.3387 11.9113 2.33902L8.65449 3.74837C7.74458 4.14231 7.04183 4.92039 6.72055 5.89408C6.7157 5.90802 6.71126 5.92211 6.70725 5.93632L6.29575 7.49256C6.285 7.50248 6.27454 7.51273 6.26439 7.52328L0.213608 13.635C-0.0713882 13.9231 -0.0711755 14.3901 0.214084 14.678C0.499343 14.966 0.961626 14.9657 1.24662 14.6776L5.15155 10.7327L5.0204 11.0543C5.01384 11.0701 5.00781 11.0861 5.00235 11.1023C4.71637 11.969 5.06139 12.8516 5.66663 13.3479C6.27187 13.8442 7.21064 14.0001 7.99685 13.5236C8.30408 13.3374 8.61162 13.0978 8.90823 12.7988C8.90854 12.7988 8.90886 12.7988 8.90918 12.7988C10.4306 11.2617 11.8803 9.49528 12.1033 9.22545C12.5577 9.22422 15.7204 9.21521 16.5964 9.22545C17.3258 9.23396 17.561 9.4792 17.638 9.68531C17.7151 9.89143 17.6819 10.2793 17.2047 10.7644C16.9609 11.012 16.9224 11.3983 17.1125 11.6899C17.5189 12.3146 17.4925 12.6372 17.3767 12.8976C17.3454 12.9463 17.3198 12.9985 17.3006 13.0532C17.3003 13.0538 17.3 13.0544 17.2997 13.0551C17.2985 13.0572 17.298 13.0597 17.2968 13.0618C17.1261 13.3571 16.8502 13.5293 16.8502 13.5293C16.6558 13.6414 16.5231 13.8374 16.4901 14.061C16.4571 14.2846 16.5275 14.5112 16.681 14.6756C16.681 14.6756 16.9293 14.9615 17.026 15.3246C17.1227 15.6878 17.1783 16.0204 16.4986 16.5717C16.1993 16.8146 16.1374 17.2502 16.357 17.5683C16.6793 18.0357 16.6403 18.4464 16.3817 18.8394C16.123 19.2324 15.5958 19.5687 14.845 19.5729C13.8454 19.5788 10.5971 19.6052 8.98995 19.5882C8.98964 19.5882 8.98932 19.5882 8.989 19.5882C8.67728 19.585 8.29262 19.6101 7.89612 19.6967C7.49962 19.7833 7.0791 19.9086 6.71865 20.2727L6.26534 20.7307C6.07468 20.9156 5.99787 21.1902 6.06455 21.4486C6.13123 21.707 6.33097 21.9088 6.58674 21.9761C6.84251 22.0435 7.11435 21.9659 7.29741 21.7733L7.75072 21.3153C7.76055 21.3054 7.9513 21.1932 8.20498 21.1377C8.45835 21.0824 8.762 21.0607 8.9738 21.0629C10.617 21.0802 13.861 21.0534 14.8535 21.0475C16.0397 21.0409 17.0472 20.4936 17.5981 19.6564C18.045 18.9772 18.1368 18.0867 17.8224 17.2774C18.4741 16.4983 18.6092 15.5909 18.4363 14.9416C18.3647 14.6729 18.2494 14.4909 18.1426 14.2974C18.2851 14.1504 18.4308 14.0258 18.5579 13.8058C18.5719 13.7817 18.5828 13.7534 18.5959 13.7281C18.729 13.5981 20.1331 12.2258 20.9319 11.3664C21.514 10.7406 21.9161 9.9221 21.982 8.90863V8.90767C21.9979 8.66597 22.0603 8.2774 22.1607 7.93706C22.2611 7.59641 22.4283 7.30088 22.479 7.24967L22.7793 6.94629C22.9948 6.73427 23.0595 6.4104 22.9422 6.13055C22.8249 5.8507 22.5497 5.6722 22.249 5.68095C22.0595 5.68653 21.8795 5.76641 21.7473 5.90368L21.4469 6.20706C21.0656 6.59234 20.8979 7.05477 20.7618 7.51656C20.6256 7.97835 20.5497 8.43596 20.5251 8.81071C20.5251 8.81103 20.5251 8.81135 20.5251 8.81167C20.4789 9.52404 20.2748 9.91963 19.8684 10.3564C19.5488 10.7004 19.0819 11.1692 18.6539 11.5987C18.6198 11.5047 18.5852 11.4106 18.5408 11.3155C19.0147 10.6336 19.2679 9.87081 19.0036 9.16401C18.6771 8.29044 17.737 7.76393 16.6135 7.75081C15.6186 7.73918 11.7773 7.75081 11.7773 7.75081C11.5612 7.75155 11.3566 7.84893 11.2185 8.01675C11.2185 8.01675 9.43244 10.183 7.87616 11.7552C7.6611 11.9719 7.44958 12.1349 7.24609 12.2582C6.98861 12.4143 6.77723 12.3589 6.58656 12.2026C6.39691 12.0471 6.30171 11.8366 6.38699 11.5728L7.33162 9.26289C7.34371 9.23319 7.35387 9.20272 7.36203 9.17169L8.10709 6.35778C8.30297 5.76718 8.70304 5.33186 9.22944 5.10396L12.4843 3.69461C12.8558 3.53488 13.1922 3.30405 13.4765 3.01681L15.2099 1.26664C15.4261 1.05473 15.4913 0.730383 15.3739 0.450093C15.2565 0.169804 14.9807 -0.008844 14.6796 0.000337907Z" fill="url(#paint0_linear_0:1384)"/>
<defs>
<linearGradient id="paint0_linear_0:1384" x1="-11.5" y1="11" x2="10.4783" y2="33.9773" gradientUnits="userSpaceOnUse">
<stop stop-color="#3087FB"/>
<stop offset="1" stop-color="#333DBD"/>
</linearGradient>
</defs>
</svg>
