<svg width="23" height="20" viewBox="0 0 23 20" fill="none" xmlns="http://www.w3.org/2000/svg">
<path fill-rule="evenodd" clip-rule="evenodd" d="M12.6284 0C11.864 0 11.2269 0.631331 11.2269 1.38888V1.66665V3.72176L6.30389 5.2224C5.32816 5.51969 4.4947 6.16004 3.95956 7.02143L0.139213 13.1748C-0.0299497 13.4287 -0.0460983 13.7537 0.0970819 14.0228C0.240262 14.2919 0.520023 14.4623 0.826963 14.4673C1.1339 14.4724 1.41926 14.3114 1.57143 14.0472L5.39178 7.8949C5.71328 7.37741 6.21378 6.99461 6.79882 6.81635L11.2269 5.46545V9.07979L7.70217 11.2347C7.30667 11.4762 7.18363 11.9897 7.42733 12.3816C7.67104 12.7735 8.18922 12.8955 8.58472 12.654L13.5789 9.60062C13.5822 9.59847 13.5855 9.5963 13.5887 9.5941C13.9461 9.36882 14.4005 9.41842 14.699 9.71455C15.062 10.0743 15.0536 10.6308 14.6815 10.9808V10.9819L7.74597 17.349C7.74451 17.3501 7.74305 17.3512 7.74159 17.3523C7.06517 17.9824 6.1732 18.3332 5.24506 18.3332H0.855323C0.552051 18.3289 0.269963 18.4868 0.117075 18.7464C-0.0358127 19.006 -0.0358127 19.327 0.117075 19.5866C0.269963 19.8462 0.552051 20.0041 0.855323 19.9998H5.24506C6.59905 19.9998 7.90208 19.4883 8.88912 18.5708L8.89131 18.5697L11.2269 16.4256V18.3332V18.611C11.2269 19.3685 11.864 19.9998 12.6284 19.9998H12.9088H21.3181H21.5984C22.3629 19.9998 23 19.3685 23 18.611V18.3332V1.66665V1.38888C23 0.631331 22.3629 0 21.5984 0H21.3181H12.9088H12.6284ZM14.5906 1.66665H19.6363C19.6363 2.5872 20.3892 3.33331 21.3181 3.33331V16.6665C20.3892 16.6665 19.6363 17.4126 19.6363 18.3332H14.5906C14.5906 17.4126 13.8377 16.6665 12.9088 16.6665V14.8816L15.6002 12.4109C16.0507 12.6462 16.5676 12.7777 17.1134 12.7777C18.7367 12.7777 20.1618 11.5805 20.1618 9.99992C20.1618 8.41935 18.7367 7.22216 17.1134 7.22216C16.3145 7.22216 15.5755 7.50181 15.021 7.98062C14.804 7.89532 14.5792 7.83207 14.3486 7.80701C13.8609 7.754 13.3621 7.84675 12.9088 8.07394V3.33331C13.8377 3.33331 14.5906 2.5872 14.5906 1.66665ZM17.1134 3.33331C16.4942 3.33331 15.9922 3.83076 15.9922 4.44441C15.9922 5.05805 16.4942 5.55551 17.1134 5.55551C17.7327 5.55551 18.2347 5.05805 18.2347 4.44441C18.2347 3.83076 17.7327 3.33331 17.1134 3.33331ZM17.1134 8.88882C17.9289 8.88882 18.48 9.43273 18.48 9.99992C18.48 10.5671 17.9289 11.111 17.1134 11.111C16.9047 11.111 16.7112 11.0719 16.5386 11.0058C16.7086 10.3755 16.6324 9.6967 16.3108 9.11342C16.5325 8.97954 16.8039 8.88882 17.1134 8.88882ZM17.1134 14.4443C16.4942 14.4443 15.9922 14.9418 15.9922 15.5554C15.9922 16.1691 16.4942 16.6665 17.1134 16.6665C17.7327 16.6665 18.2347 16.1691 18.2347 15.5554C18.2347 14.9418 17.7327 14.4443 17.1134 14.4443Z" fill="url(#paint0_linear_0:1388)"/>
<defs>
<linearGradient id="paint0_linear_0:1388" x1="-11.5" y1="10" x2="8.30624" y2="32.7772" gradientUnits="userSpaceOnUse">
<stop stop-color="#3087FB"/>
<stop offset="1" stop-color="#333DBD"/>
</linearGradient>
</defs>
</svg>
