<svg width="21" height="26" viewBox="0 0 21 26" fill="none" xmlns="http://www.w3.org/2000/svg">
<path fill-rule="evenodd" clip-rule="evenodd" d="M11.0067 0.0118964C4.99458 -0.271756 0 4.55408 0 10.5237V13.3094V17.6428C0 19.4211 1.39948 20.8559 3.14011 20.9956C3.28168 23.4238 5.26406 25.3809 7.72059 25.3809H8.34668C8.62891 25.7543 9.07139 26 9.57353 26H11.4265C12.2776 26 12.9706 25.306 12.9706 24.4524C12.9706 23.5987 12.2776 22.9047 11.4265 22.9047H9.57353C9.07139 22.9047 8.62891 23.1504 8.34668 23.5238H7.72059C6.28413 23.5238 5.16111 22.4416 5.0027 21.0476H6.48529C6.99695 21.0475 7.41171 20.6318 7.41176 20.119V13.3094C7.41171 12.7966 6.99695 12.3809 6.48529 12.3809H1.85294V10.5237C1.85294 5.58684 5.93533 1.63152 10.9186 1.86664C15.5599 2.08536 19.1471 6.10367 19.1471 10.7945V12.3809H14.5147C14.0031 12.3809 13.5883 12.7966 13.5882 13.3094V20.119C13.5883 20.6318 14.0031 21.0475 14.5147 21.0476H17.6029C19.4681 21.0476 21 19.5122 21 17.6428V13.3094V10.7945C21 5.15217 16.664 0.278508 11.0067 0.0118964ZM1.85294 14.238H5.55882V19.1904H3.39706C2.53345 19.1904 1.85294 18.5084 1.85294 17.6428V14.238ZM15.4412 14.238H19.1471V17.6428C19.1471 18.5084 18.4666 19.1904 17.6029 19.1904H15.4412V14.238Z" fill="url(#paint0_linear_0:1397)"/>
<defs>
<linearGradient id="paint0_linear_0:1397" x1="-10.5" y1="13" x2="14.9181" y2="33.53" gradientUnits="userSpaceOnUse">
<stop stop-color="#3087FB"/>
<stop offset="1" stop-color="#333DBD"/>
</linearGradient>
</defs>
</svg>
