<svg width="22" height="23" viewBox="0 0 22 23" fill="none" xmlns="http://www.w3.org/2000/svg">
<path fill-rule="evenodd" clip-rule="evenodd" d="M11 0C10.0968 0 9.22595 0.114671 8.39459 0.308838C8.03929 0.392092 7.7751 0.691531 7.73569 1.05566L7.55334 2.72451C7.4937 3.27138 7.17903 3.75524 6.70426 4.03062C6.23043 4.30544 5.65531 4.33588 5.15377 4.11484H5.15265L3.62565 3.43989C3.29185 3.29242 2.90168 3.37256 2.65239 3.63979C1.46534 4.91026 0.554296 6.44866 0.0369143 8.16567C-0.0687043 8.51591 0.0572935 8.89492 0.351264 9.11128L1.70599 10.1085C2.14837 10.4351 2.40852 10.9496 2.40852 11.5C2.40852 12.0507 2.14837 12.5657 1.70599 12.8915L0.351264 13.8876C0.0572935 14.104 -0.0687043 14.483 0.0369143 14.8332C0.554241 16.55 1.46456 18.0896 2.65239 19.3602C2.90195 19.627 3.29208 19.7067 3.62565 19.559L5.15265 18.884C5.65444 18.6625 6.23011 18.6944 6.70426 18.9694C7.17903 19.2448 7.4937 19.7286 7.55334 20.2755L7.73569 21.9443C7.77539 22.3077 8.03896 22.6065 8.39347 22.69C9.22521 22.8849 10.0968 23 11 23C11.9032 23 12.774 22.8853 13.6054 22.6912C13.9607 22.6079 14.2249 22.3085 14.2643 21.9443L14.4467 20.2755C14.5063 19.7286 14.821 19.2448 15.2957 18.9694C15.7696 18.6946 16.3447 18.663 16.8462 18.884L18.3744 19.559C18.7079 19.7067 19.0981 19.627 19.3476 19.3602C20.5347 18.0897 21.4457 16.5502 21.9631 14.8332C22.0687 14.483 21.9427 14.104 21.6487 13.8876L20.294 12.8915C19.8516 12.5657 19.5915 12.0507 19.5915 11.5C19.5915 10.9493 19.8516 10.4343 20.294 10.1085L21.6487 9.1124C21.9427 8.89605 22.0687 8.51703 21.9631 8.1668C21.4457 6.44978 20.5347 4.91026 19.3476 3.63979C19.0981 3.37295 18.7079 3.29327 18.3744 3.44102L16.8462 4.11597C16.3447 4.33701 15.7696 4.30544 15.2957 4.03062C14.821 3.75524 14.5063 3.27138 14.4467 2.72451L14.2643 1.05566C14.2246 0.69228 13.961 0.393488 13.6065 0.309961C12.7748 0.115089 11.9032 0 11 0ZM11 1.725C11.558 1.725 12.0939 1.82556 12.631 1.92041L12.7384 2.91206C12.8575 4.00394 13.4898 4.97509 14.4366 5.52427C15.384 6.0738 16.5375 6.13698 17.5387 5.69497L18.4471 5.29404C19.1446 6.13491 19.6969 7.08468 20.0826 8.12524L19.2771 8.71821C18.3953 9.36763 17.8732 10.4016 17.8732 11.5C17.8732 12.5984 18.3953 13.6324 19.2771 14.2818L20.0826 14.8748C19.6969 15.9153 19.1446 16.8651 18.4471 17.706L17.5387 17.305C16.5375 16.863 15.384 16.9262 14.4366 17.4757C13.4898 18.0249 12.8575 18.9961 12.7384 20.0879L12.631 21.0796C12.094 21.1742 11.5578 21.275 11 21.275C10.442 21.275 9.90606 21.1744 9.36896 21.0796L9.26157 20.0879C9.1425 18.9961 8.51024 18.0249 7.56341 17.4757C6.61596 16.9262 5.46245 16.863 4.4613 17.305L3.55293 17.706C2.85526 16.8652 2.3031 15.9154 1.91742 14.8748L2.72287 14.2818C3.60472 13.6324 4.12682 12.5984 4.12682 11.5C4.12682 10.4016 3.60429 9.36696 2.72287 8.71709L1.91742 8.12412C2.30332 7.08316 2.85611 6.13401 3.55405 5.29292L4.4613 5.69385C5.46245 6.13586 6.61596 6.0738 7.56341 5.52427C8.51024 4.97509 9.1425 4.00394 9.26157 2.91206L9.36896 1.92041C9.90602 1.82582 10.4422 1.725 11 1.725ZM11 6.9C8.47954 6.9 6.41788 8.96971 6.41788 11.5C6.41788 14.0303 8.47954 16.1 11 16.1C13.5205 16.1 15.5821 14.0303 15.5821 11.5C15.5821 8.96971 13.5205 6.9 11 6.9ZM11 8.625C12.5918 8.625 13.8638 9.90196 13.8638 11.5C13.8638 13.098 12.5918 14.375 11 14.375C9.40817 14.375 8.13617 13.098 8.13617 11.5C8.13617 9.90196 9.40817 8.625 11 8.625Z" fill="url(#paint0_linear_0:1404)"/>
<defs>
<linearGradient id="paint0_linear_0:1404" x1="-11" y1="11.5" x2="11.9773" y2="33.4783" gradientUnits="userSpaceOnUse">
<stop stop-color="#3087FB"/>
<stop offset="1" stop-color="#333DBD"/>
</linearGradient>
</defs>
</svg>
