<svg width="26" height="26" viewBox="0 0 26 26" fill="none" xmlns="http://www.w3.org/2000/svg">
<path fill-rule="evenodd" clip-rule="evenodd" d="M0 4.33333C0 1.9572 1.95722 0 4.33338 0H16.6113C18.6162 0 20.4009 1.31408 20.8995 3.25141C21.028 3.75133 20.8801 4.28184 20.5114 4.6431C20.1427 5.00435 19.6093 5.14147 19.1121 5.0028C18.6149 4.86413 18.2294 4.47074 18.1009 3.97081C17.9582 3.41648 17.2988 2.88889 16.6113 2.88889H4.33338C3.51873 2.88889 2.88892 3.51869 2.88892 4.33333V21.6667C2.88892 22.4813 3.51873 23.1111 4.33338 23.1111H16.6113C17.2988 23.1111 17.9582 22.5835 18.1009 22.0292C18.2294 21.5293 18.6149 21.1359 19.1121 20.9972C19.6093 20.8585 20.1427 20.9957 20.5114 21.3569C20.8801 21.7182 21.028 22.2487 20.8995 22.7486C20.4009 24.6859 18.6162 26 16.6113 26H4.33338C1.95722 26 0 24.0428 0 21.6667V4.33333ZM18.87 8.10977C19.0908 7.56532 19.6194 7.20884 20.2069 7.20812C20.5974 7.20776 20.9714 7.3655 21.2437 7.6454L25.5771 11.9787C26.141 12.5428 26.141 13.4572 25.5771 14.0213L21.2437 18.3546C20.8814 18.7319 20.3434 18.884 19.8372 18.752C19.331 18.62 18.9357 18.2247 18.8038 17.7185C18.6718 17.2123 18.8238 16.6744 19.2012 16.3121L21.0688 14.4444H7.94453C7.42361 14.4518 6.93907 14.1781 6.67646 13.7282C6.41384 13.2782 6.41384 12.7218 6.67646 12.2718C6.93907 11.8219 7.42361 11.5482 7.94453 11.5556H21.0688L19.2012 9.68793C18.7801 9.27816 18.6492 8.65422 18.87 8.10977Z" fill="white"/>
</svg>
