<svg width="20" height="14" viewBox="0 0 20 14" fill="none" xmlns="http://www.w3.org/2000/svg">
<path fill-rule="evenodd" clip-rule="evenodd" d="M1.0128 0.000100432C0.652677 -0.00499986 0.317709 0.184476 0.136161 0.495973C-0.045387 0.807471 -0.045387 1.19273 0.136161 1.50423C0.317709 1.81573 0.652677 2.0052 1.0128 2.0001H18.9872C19.3473 2.0052 19.6823 1.81573 19.8638 1.50423C20.0454 1.19273 20.0454 0.807471 19.8638 0.495973C19.6823 0.184476 19.3473 -0.00499986 18.9872 0.000100432H1.0128ZM1.0128 6.0001C0.652677 5.995 0.317709 6.18448 0.136161 6.49597C-0.045387 6.80747 -0.045387 7.19273 0.136161 7.50423C0.317709 7.81573 0.652677 8.0052 1.0128 8.0001H11.2667C11.6268 8.0052 11.9618 7.81573 12.1433 7.50423C12.3249 7.19273 12.3249 6.80747 12.1433 6.49597C11.9618 6.18448 11.6268 5.995 11.2667 6.0001H1.0128ZM0.136161 12.496C0.317709 12.1845 0.652677 11.995 1.0128 12.0001H18.9872C19.3473 11.995 19.6823 12.1845 19.8638 12.496C20.0454 12.8075 20.0454 13.1927 19.8638 13.5042C19.6823 13.8157 19.3473 14.0052 18.9872 14.0001H1.0128C0.652677 14.0052 0.317709 13.8157 0.136161 13.5042C-0.045387 13.1927 -0.045387 12.8075 0.136161 12.496Z" fill="white"/>
</svg>
