<svg width="196" height="67" viewBox="0 0 196 67" fill="none" xmlns="http://www.w3.org/2000/svg">
<path d="M95.3541 38.526C96.3661 38.526 97.1941 38.4493 97.8381 38.296C98.5127 38.112 99.0494 37.882 99.4481 37.606C99.8467 37.2993 100.123 36.9467 100.276 36.548C100.429 36.1493 100.506 35.7047 100.506 35.214C100.506 34.1713 100.015 33.3127 99.0341 32.638C98.0527 31.9327 96.3661 31.1813 93.9741 30.384C92.9314 30.016 91.8887 29.602 90.8461 29.142C89.8034 28.6513 88.8681 28.0533 88.0401 27.348C87.2121 26.612 86.5374 25.738 86.0161 24.726C85.4947 23.6833 85.2341 22.426 85.2341 20.954C85.2341 19.482 85.5101 18.1633 86.0621 16.998C86.6141 15.802 87.3961 14.79 88.4081 13.962C89.4201 13.134 90.6467 12.5053 92.0881 12.076C93.5294 11.616 95.1547 11.386 96.9641 11.386C99.1107 11.386 100.966 11.616 102.53 12.076C104.094 12.536 105.382 13.042 106.394 13.594L104.324 19.252C103.435 18.792 102.438 18.3933 101.334 18.056C100.261 17.688 98.9574 17.504 97.4241 17.504C95.7067 17.504 94.4647 17.7493 93.6981 18.24C92.9621 18.7 92.5941 19.4207 92.5941 20.402C92.5941 20.9847 92.7321 21.4753 93.0081 21.874C93.2841 22.2727 93.6674 22.6407 94.1581 22.978C94.6794 23.2847 95.2621 23.576 95.9061 23.852C96.5807 24.0973 97.3167 24.358 98.1141 24.634C99.7701 25.2473 101.211 25.8607 102.438 26.474C103.665 27.0567 104.677 27.7467 105.474 28.544C106.302 29.3413 106.915 30.2767 107.314 31.35C107.713 32.4233 107.912 33.7267 107.912 35.26C107.912 38.2347 106.869 40.55 104.784 42.206C102.699 43.8313 99.5554 44.644 95.3541 44.644C93.9434 44.644 92.6707 44.552 91.5361 44.368C90.4014 44.2147 89.3894 44.0153 88.5001 43.77C87.6414 43.5247 86.8901 43.264 86.2461 42.988C85.6327 42.712 85.1114 42.4513 84.6821 42.206L86.7061 36.502C87.6567 37.0233 88.8221 37.4987 90.2021 37.928C91.6127 38.3267 93.3301 38.526 95.3541 38.526ZM118.748 12.122C119.3 13.134 119.928 14.3913 120.634 15.894C121.37 17.366 122.121 18.976 122.888 20.724C123.685 22.4413 124.467 24.2047 125.234 26.014C126 27.8233 126.721 29.5253 127.396 31.12C128.07 29.5253 128.791 27.8233 129.558 26.014C130.324 24.2047 131.091 22.4413 131.858 20.724C132.655 18.976 133.406 17.366 134.112 15.894C134.848 14.3913 135.492 13.134 136.044 12.122H142.576C142.882 14.238 143.158 16.6147 143.404 19.252C143.68 21.8587 143.91 24.588 144.094 27.44C144.308 30.2613 144.492 33.098 144.646 35.95C144.83 38.802 144.983 41.4853 145.106 44H138.114C138.022 40.9027 137.899 37.5293 137.746 33.88C137.592 30.2307 137.362 26.5507 137.056 22.84C136.504 24.128 135.89 25.554 135.216 27.118C134.541 28.682 133.866 30.246 133.192 31.81C132.548 33.374 131.919 34.8767 131.306 36.318C130.692 37.7287 130.171 38.94 129.742 39.952H124.728C124.298 38.94 123.777 37.7287 123.164 36.318C122.55 34.8767 121.906 33.374 121.232 31.81C120.588 30.246 119.928 28.682 119.254 27.118C118.579 25.554 117.966 24.128 117.414 22.84C117.107 26.5507 116.877 30.2307 116.724 33.88C116.57 37.5293 116.448 40.9027 116.356 44H109.364C109.486 41.4853 109.624 38.802 109.778 35.95C109.962 33.098 110.146 30.2613 110.33 27.44C110.544 24.588 110.774 21.8587 111.02 19.252C111.296 16.6147 111.587 14.238 111.894 12.122H118.748ZM156.881 12.122C157.433 13.134 158.061 14.3913 158.767 15.894C159.503 17.366 160.254 18.976 161.021 20.724C161.818 22.4413 162.6 24.2047 163.367 26.014C164.133 27.8233 164.854 29.5253 165.529 31.12C166.203 29.5253 166.924 27.8233 167.691 26.014C168.457 24.2047 169.224 22.4413 169.991 20.724C170.788 18.976 171.539 17.366 172.245 15.894C172.981 14.3913 173.625 13.134 174.177 12.122H180.709C181.015 14.238 181.291 16.6147 181.537 19.252C181.813 21.8587 182.043 24.588 182.227 27.44C182.441 30.2613 182.625 33.098 182.779 35.95C182.963 38.802 183.116 41.4853 183.239 44H176.247C176.155 40.9027 176.032 37.5293 175.879 33.88C175.725 30.2307 175.495 26.5507 175.189 22.84C174.637 24.128 174.023 25.554 173.349 27.118C172.674 28.682 171.999 30.246 171.325 31.81C170.681 33.374 170.052 34.8767 169.439 36.318C168.825 37.7287 168.304 38.94 167.875 39.952H162.861C162.431 38.94 161.91 37.7287 161.297 36.318C160.683 34.8767 160.039 33.374 159.365 31.81C158.721 30.246 158.061 28.682 157.387 27.118C156.712 25.554 156.099 24.128 155.547 22.84C155.24 26.5507 155.01 30.2307 154.857 33.88C154.703 37.5293 154.581 40.9027 154.489 44H147.497C147.619 41.4853 147.757 38.802 147.911 35.95C148.095 33.098 148.279 30.2613 148.463 27.44C148.677 24.588 148.907 21.8587 149.153 19.252C149.429 16.6147 149.72 14.238 150.027 12.122H156.881Z" fill="white"/>
<path opacity="0.419638" d="M89.414 48.447C89.722 48.979 90.065 49.63 90.443 50.4C90.821 51.17 91.206 51.982 91.598 52.836C91.99 53.676 92.375 54.537 92.753 55.419C93.145 56.287 93.502 57.092 93.824 57.834C94.146 57.092 94.496 56.287 94.874 55.419C95.252 54.537 95.637 53.676 96.029 52.836C96.421 51.982 96.806 51.17 97.184 50.4C97.562 49.63 97.905 48.979 98.213 48.447H100.607C100.733 49.511 100.852 50.645 100.964 51.849C101.076 53.039 101.174 54.264 101.258 55.524C101.356 56.77 101.44 58.03 101.51 59.304C101.594 60.564 101.664 61.796 101.72 63H99.116C99.06 61.306 98.99 59.563 98.906 57.771C98.836 55.979 98.724 54.243 98.57 52.563C98.416 52.885 98.234 53.27 98.024 53.718C97.814 54.166 97.59 54.656 97.352 55.188C97.114 55.706 96.869 56.245 96.617 56.805C96.379 57.365 96.141 57.911 95.903 58.443C95.679 58.961 95.469 59.451 95.273 59.913C95.077 60.361 94.909 60.746 94.769 61.068H92.795C92.655 60.746 92.487 60.354 92.291 59.892C92.095 59.43 91.878 58.94 91.64 58.422C91.416 57.89 91.178 57.344 90.926 56.784C90.688 56.224 90.45 55.685 90.212 55.167C89.974 54.649 89.75 54.166 89.54 53.718C89.33 53.256 89.148 52.871 88.994 52.563C88.84 54.243 88.721 55.979 88.637 57.771C88.567 59.563 88.504 61.306 88.448 63H85.844C85.9 61.796 85.963 60.55 86.033 59.262C86.117 57.974 86.201 56.7 86.285 55.44C86.383 54.166 86.488 52.934 86.6 51.744C86.712 50.554 86.831 49.455 86.957 48.447H89.414ZM113.665 63V48.447H123.01V50.694H116.311V54.285H122.275V56.49H116.311V60.753H123.514V63H113.665ZM137.477 60.816C137.631 60.83 137.834 60.844 138.086 60.858C138.338 60.858 138.681 60.858 139.115 60.858C140.893 60.858 142.216 60.41 143.084 59.514C143.966 58.604 144.407 57.337 144.407 55.713C144.407 54.061 143.98 52.794 143.126 51.912C142.272 51.03 140.949 50.589 139.157 50.589C138.373 50.589 137.813 50.61 137.477 50.652V60.816ZM147.179 55.713C147.179 56.973 146.983 58.072 146.591 59.01C146.199 59.934 145.639 60.711 144.911 61.341C144.197 61.957 143.329 62.419 142.307 62.727C141.299 63.021 140.179 63.168 138.947 63.168C138.359 63.168 137.694 63.14 136.952 63.084C136.21 63.042 135.503 62.944 134.831 62.79V48.657C135.503 48.503 136.217 48.405 136.973 48.363C137.729 48.321 138.401 48.3 138.989 48.3C140.207 48.3 141.32 48.447 142.328 48.741C143.336 49.021 144.197 49.469 144.911 50.085C145.639 50.687 146.199 51.457 146.591 52.395C146.983 53.319 147.179 54.425 147.179 55.713ZM158.93 48.447H161.576V63H158.93V48.447ZM183.584 63C183.388 62.426 183.185 61.859 182.975 61.299C182.765 60.739 182.562 60.165 182.366 59.577H176.234C176.038 60.165 175.835 60.746 175.625 61.32C175.429 61.88 175.233 62.44 175.037 63H172.286C172.832 61.446 173.35 60.011 173.84 58.695C174.33 57.379 174.806 56.133 175.268 54.957C175.744 53.781 176.213 52.661 176.675 51.597C177.137 50.533 177.613 49.483 178.103 48.447H180.602C181.092 49.483 181.568 50.533 182.03 51.597C182.492 52.661 182.954 53.781 183.416 54.957C183.892 56.133 184.375 57.379 184.865 58.695C185.369 60.011 185.894 61.446 186.44 63H183.584ZM179.3 51.261C178.978 52.003 178.607 52.906 178.187 53.97C177.781 55.034 177.354 56.189 176.906 57.435H181.694C181.246 56.189 180.812 55.027 180.392 53.949C179.972 52.871 179.608 51.975 179.3 51.261Z" fill="white"/>
<path fill-rule="evenodd" clip-rule="evenodd" d="M38.5343 67C55.9123 67 70 52.897 70 35.5C70 18.103 55.9123 4 38.5343 4C21.1563 4 7.06863 18.103 7.06863 35.5C7.06863 35.6904 7.07032 35.8804 7.07368 36.07C11.2673 36.0991 16.712 36.4061 16.712 36.4061C19.6231 36.4061 20.5601 34.7785 21.6891 32.8173C22.3161 31.7282 23.0023 30.5363 24.1188 29.4631C27.2711 26.4324 33.3024 19.5649 34.4899 14.1499C35.2758 10.5231 38.6503 12.1686 39.8292 14.1079C41.6022 17.0042 39.8863 20.5719 38.3355 23.7963C38.205 24.0676 38.0757 24.3364 37.9498 24.6022C36.5487 27.549 36.7623 30.8903 40.5126 30.4622C42.0669 30.286 43.3029 30.1288 44.412 29.9876C46.5278 29.7184 48.1822 29.5079 50.7043 29.3372C54.5914 29.0769 55.813 30.6385 55.813 32.0909C55.813 33.5374 55.51 34.1578 55.2782 34.6324C55.1347 34.9263 55.0185 35.1642 55.0185 35.5078C55.0185 35.8273 55.3958 35.9599 55.8819 36.1307C56.7624 36.4402 58 36.875 58 38.7736C58 40.7016 57.0016 41.3286 56.3113 41.7622C55.9465 41.9913 55.6678 42.1663 55.6678 42.4508C55.6678 42.7563 55.981 42.9992 56.375 43.3048C57.042 43.8221 57.9402 44.5188 57.9402 46.002C57.9402 47.4383 56.8066 48.1153 55.9197 48.6449C55.3498 48.9852 54.8818 49.2647 54.8818 49.6456C54.8818 50.0834 55.0821 50.3752 55.3025 50.6966C55.5725 51.0902 55.8728 51.528 55.8728 52.3322C55.8728 53.793 52.7717 57 41.8368 57C30.7673 57 27.0522 55.4532 24.0364 54.1975C21.976 53.3396 20.242 52.6176 16.712 52.6176C16.712 52.6176 14.4837 52.5226 11.9282 52.3249C17.5049 61.1443 27.3365 67 38.5343 67Z" fill="white"/>
</svg>
