<svg width="45" height="45" viewBox="0 0 45 45" fill="none" xmlns="http://www.w3.org/2000/svg">
<rect x="0.12085" y="0.47168" width="44.1652" height="44.1566" rx="10.4799" fill="#EEECF1"/>
<path fill-rule="evenodd" clip-rule="evenodd" d="M14.6837 19.9307C13.264 19.9307 12.0979 21.1119 12.0979 22.5501C12.0979 23.9883 13.264 25.1696 14.6837 25.1696C16.1032 25.1696 17.2696 23.9883 17.2696 22.5501C17.2696 21.1119 16.1032 19.9307 14.6837 19.9307ZM29.7232 19.9307C28.3035 19.9307 27.1374 21.1119 27.1374 22.5501C27.1374 23.9883 28.3035 25.1696 29.7232 25.1696C31.1427 25.1696 32.3091 23.9883 32.3091 22.5501C32.3091 21.1119 31.1427 19.9307 29.7232 19.9307ZM19.6186 22.5501C19.6186 21.1126 20.7839 19.9316 22.2035 19.9316C23.6227 19.9316 24.7884 21.1124 24.7884 22.5501C24.7884 23.9878 23.6227 25.1687 22.2035 25.1687C20.7842 25.1687 19.6186 23.9878 19.6186 22.5501Z" fill="#562C95"/>
</svg>
