<svg width="16" height="15" viewBox="0 0 16 15" fill="none" xmlns="http://www.w3.org/2000/svg">
<path fill-rule="evenodd" clip-rule="evenodd" d="M11.0996 0.553989C9.04779 0.637811 7.91372 2.11444 7.91372 2.11444C7.91372 2.11444 6.77964 0.637811 4.72784 0.553989C3.35198 0.497857 2.09065 1.18266 1.25975 2.28059C-1.6312 6.10051 3.84229 10.5693 5.12981 11.769C5.90008 12.4868 6.85076 13.3392 7.41817 13.8444C7.70187 14.0974 8.12481 14.0974 8.40852 13.8444C8.97593 13.3392 9.9266 12.4868 10.6969 11.769C11.9844 10.5693 17.4586 6.10051 14.5669 2.28059C13.7368 1.18266 12.4755 0.497857 11.0996 0.553989Z" fill="url(#paint0_linear_0:47)"/>
<defs>
<linearGradient id="paint0_linear_0:47" x1="-7.05704" y1="7.29245" x2="6.35282" y2="22.1814" gradientUnits="userSpaceOnUse">
<stop stop-color="#3087FB"/>
<stop offset="1" stop-color="#333DBD"/>
</linearGradient>
</defs>
</svg>
