<svg width="18" height="11" viewBox="0 0 18 11" fill="none" xmlns="http://www.w3.org/2000/svg">
<path fill-rule="evenodd" clip-rule="evenodd" d="M8.91363 0.438477C7.67337 0.438477 6.66794 1.44371 6.66794 2.68373C6.66794 3.92375 7.67337 4.92898 8.91363 4.92898C10.1539 4.92898 11.1593 3.92375 11.1593 2.68373C11.1593 1.44371 10.1539 0.438477 8.91363 0.438477ZM3.67369 1.93531C2.84685 1.93531 2.17657 2.60547 2.17657 3.43215C2.17657 4.25883 2.84685 4.92898 3.67369 4.92898C4.50053 4.92898 5.17082 4.25883 5.17082 3.43215C5.17082 2.60547 4.50053 1.93531 3.67369 1.93531ZM14.1536 1.93531C13.3267 1.93531 12.6564 2.60547 12.6564 3.43215C12.6564 4.25883 13.3267 4.92898 14.1536 4.92898C14.9804 4.92898 15.6507 4.25883 15.6507 3.43215C15.6507 2.60547 14.9804 1.93531 14.1536 1.93531ZM8.91363 6.42582C6.2697 6.42582 4.42225 7.41582 4.42225 8.83333V10.1679C4.42225 10.581 4.75761 10.9163 5.17082 10.9163H12.6564C13.0696 10.9163 13.405 10.581 13.405 10.1679V8.83333C13.405 7.41582 11.5575 6.42582 8.91363 6.42582ZM3.35935 6.43459C1.86782 6.51565 0.679443 7.16941 0.679443 8.08491V8.67107C0.679443 9.0842 1.0148 9.41949 1.42801 9.41949H2.92513V8.83333C2.92513 7.89406 3.31961 7.08251 4.01727 6.44336C4.01502 6.43737 4.01659 6.44204 4.01435 6.43605C3.79146 6.42333 3.57243 6.42301 3.35935 6.43459ZM14.4679 6.43459C14.2548 6.42301 14.0358 6.42333 13.8129 6.43605C13.8107 6.44204 13.8122 6.43737 13.81 6.44336C14.5076 7.08251 14.9021 7.89481 14.9021 8.83333V9.41949H16.3992C16.8125 9.41949 17.1478 9.0842 17.1478 8.67107V8.08491C17.1478 7.16941 15.9594 6.51565 14.4679 6.43459Z" fill="url(#paint0_linear_0:30)"/>
<defs>
<linearGradient id="paint0_linear_0:30" x1="-7.55474" y1="5.6774" x2="1.93618" y2="20.5946" gradientUnits="userSpaceOnUse">
<stop stop-color="#3087FB"/>
<stop offset="1" stop-color="#333DBD"/>
</linearGradient>
</defs>
</svg>
