<svg width="45" height="45" viewBox="0 0 45 45" fill="none" xmlns="http://www.w3.org/2000/svg">
<rect x="0.632812" y="0.47168" width="44.1652" height="44.1566" rx="10.4799" fill="black"/>
<path fill-rule="evenodd" clip-rule="evenodd" d="M28.1698 27.1633V19.4493C29.7428 20.5558 31.632 21.1499 33.5695 21.1476V18.1976C32.4271 17.9566 31.3954 17.3598 30.6292 16.4966C30.0156 16.1063 29.4894 15.5982 29.0824 15.0031C28.6755 14.4081 28.3961 13.7384 28.2615 13.0347H25.42L25.4141 28.2468C25.3488 29.9503 23.9152 31.3177 22.1577 31.3177C21.6406 31.3172 21.1312 31.1963 20.6713 30.965C20.2115 30.7338 19.8145 30.3988 19.5132 29.9878C18.9862 29.7176 18.5447 29.3117 18.2365 28.8139C17.9283 28.316 17.765 27.7453 17.7644 27.1633C17.7654 26.3174 18.1094 25.5064 18.721 24.9083C19.3326 24.3101 20.1618 23.9736 21.0268 23.9726C21.3623 23.9726 21.6845 24.0265 21.9894 24.1204V21.1439C18.1281 21.2326 15.0146 24.3294 15.0146 28.127C15.0146 29.9635 15.7442 31.6354 16.9329 32.884C18.1312 33.7091 19.5613 34.1514 21.0268 34.1501C24.9658 34.1501 28.1698 31.0158 28.1698 27.1633Z" fill="#FF004F"/>
<path fill-rule="evenodd" clip-rule="evenodd" d="M26.6952 25.6907V18.0508C28.3793 19.1466 30.4021 19.7351 32.4766 19.7328V16.811C31.2534 16.5724 30.1488 15.9813 29.3285 15.1265C28.6715 14.7399 28.108 14.2367 27.6723 13.6473C27.2365 13.058 26.9375 12.3947 26.7933 11.6978H23.751L23.7446 26.7638C23.6747 28.451 22.1396 29.8052 20.258 29.8052C19.7044 29.8047 19.1588 29.6849 18.6664 29.4559C18.1741 29.2269 17.749 28.8951 17.4265 28.488C16.8622 28.2205 16.3895 27.8184 16.0595 27.3253C15.7295 26.8323 15.5547 26.2671 15.554 25.6907C15.5551 24.8529 15.9234 24.0497 16.5783 23.4573C17.2331 22.8648 18.121 22.5317 19.047 22.5306C19.4064 22.5306 19.7513 22.5839 20.0777 22.677V19.7291C15.9434 19.817 12.6099 22.884 12.6099 26.6451C12.6099 28.464 13.391 30.1199 14.6637 31.3565C15.9468 32.1736 17.4779 32.6116 19.047 32.6104C23.2646 32.6104 26.6952 29.5062 26.6952 25.6907Z" fill="#00F7EF"/>
<path fill-rule="evenodd" clip-rule="evenodd" d="M27.0768 26.3816V18.6676C28.6498 19.774 30.5389 20.3682 32.4765 20.3659V17.4158C31.3341 17.1748 30.3024 16.578 29.5362 15.7149C28.9226 15.3246 28.3963 14.8165 27.9894 14.2214C27.5824 13.6263 27.3032 12.9566 27.1686 12.2529H24.3271L24.3211 27.4651C24.2558 29.1686 22.8221 30.536 21.0647 30.536C20.5476 30.5355 20.0381 30.4146 19.5783 30.1833C19.1184 29.952 18.7214 29.6171 18.4202 29.2061C17.8932 28.9359 17.4517 28.5299 17.1435 28.0321C16.8352 27.5343 16.672 26.9635 16.6714 26.3816C16.6724 25.5356 17.0164 24.7247 17.628 24.1265C18.2396 23.5283 19.0688 23.1919 19.9337 23.1909C20.2694 23.1909 20.5915 23.2447 20.8964 23.3386V20.3622C17.0351 20.4508 13.9216 23.5476 13.9216 27.3453C13.9216 29.1818 14.6512 30.8537 15.8399 32.1023C17.0382 32.9274 18.4682 33.3696 19.9337 33.3684C23.8727 33.3684 27.0768 30.2341 27.0768 26.3816Z" fill="white"/>
</svg>
