<svg width="45" height="45" viewBox="0 0 45 45" fill="none" xmlns="http://www.w3.org/2000/svg">
<rect x="0.254639" y="0.47168" width="44.1652" height="44.1566" rx="10.4799" fill="#03A9F4"/>
<path d="M33.1915 16.0698C32.3564 16.4304 31.4665 16.6694 30.5387 16.7855C31.4931 16.2245 32.2216 15.343 32.5641 14.2805C31.6742 14.8028 30.6917 15.1717 29.6447 15.3776C28.7997 14.4919 27.5955 13.9434 26.2818 13.9434C23.733 13.9434 21.6809 15.98 21.6809 18.4767C21.6809 18.8359 21.7118 19.1813 21.7876 19.5102C17.9601 19.3264 14.5733 17.5206 12.2982 14.7696C11.901 15.448 11.668 16.2245 11.668 17.0605C11.668 18.6301 12.4891 20.0214 13.713 20.8269C12.9733 20.8131 12.2477 20.6017 11.6329 20.2687C11.6329 20.2826 11.6329 20.3006 11.6329 20.3185C11.6329 22.5209 13.2287 24.3503 15.3214 24.7717C14.9467 24.8725 14.5383 24.9209 14.1144 24.9209C13.8196 24.9209 13.5221 24.9044 13.2428 24.8436C13.8393 26.6384 15.532 27.9579 17.5447 28.0007C15.9783 29.2069 13.9895 29.9337 11.8364 29.9337C11.4589 29.9337 11.0967 29.9171 10.7346 29.8715C12.774 31.1662 15.1909 31.9054 17.7973 31.9054C26.2692 31.9054 30.9009 24.9969 30.9009 19.0086C30.9009 18.8083 30.8938 18.6149 30.884 18.4228C31.7977 17.7845 32.5655 16.9872 33.1915 16.0698Z" fill="white"/>
</svg>
