<svg width="30" height="23" viewBox="0 0 30 23" fill="none" xmlns="http://www.w3.org/2000/svg">
<path d="M29.6896 4.91379C29.6896 4.91379 29.3793 2.68963 28.5 1.70689C27.3621 0.41379 26.069 0.41379 25.5 0.36205C21.3104 0.05174 15 0 15 0C15 0 8.68963 0.05174 4.5 0.36205C3.93105 0.41379 2.63795 0.46553 1.5 1.70689C0.568945 2.68969 0.310371 4.91379 0.310371 4.91379C0.310371 4.91379 0 7.55171 0 10.1897V12.6207C0 15.2587 0.310371 17.8449 0.310371 17.8449C0.310371 17.8449 0.620742 20.0691 1.5 21.0518C2.63795 22.3449 4.13795 22.2932 4.81037 22.4484C7.18963 22.7069 15 22.7586 15 22.7586C15 22.7586 21.3104 22.7586 25.5 22.3966C26.069 22.3448 27.3621 22.2931 28.5 21.0517C29.3793 20.069 29.6896 17.8448 29.6896 17.8448C29.6896 17.8448 30 15.2069 30 12.6207V10.1896C30 7.55171 29.6896 4.91379 29.6896 4.91379Z" fill="white"/>
<path d="M11.3794 6.15527V17.3795L21.207 11.8968L11.3794 6.15527Z" fill="#27284D"/>
</svg>
